<svg width="270" height="106" viewBox="0 0 270 106" fill="none" xmlns="http://www.w3.org/2000/svg">
<path d="M19.1606 94.6374C13.1277 93.8406 8.35808 91.3495 4.8423 87.1546C1.82428 83.1045 0.217603 78.8876 0.0222817 74.5037C-0.147837 70.734 0.724808 66.8383 2.63706 62.8103C6.31666 56.077 13.2758 51.9672 23.5144 50.4775C24.617 50.3453 25.414 50.2287 25.8992 50.1248C26.3875 50.0209 26.7088 49.8634 26.8632 49.6493C27.0176 49.4383 27.1467 49.1233 27.2507 48.7076C29.5756 41.0894 32.181 33.7483 35.0667 26.6812C35.9929 24.4641 37.3097 21.5415 39.0141 17.9135C40.7184 14.2855 42.3345 10.9598 43.8624 7.93645C45.3903 4.9131 46.3481 3.16522 46.7355 2.69597C47.3278 2.17633 48.0335 1.89919 48.8526 1.8614C49.4259 1.8362 50.0465 1.93068 50.7144 2.14799C51.335 2.28341 51.6658 2.76211 51.7036 3.58093C51.732 4.19505 51.565 5.04537 51.2027 6.12873C50.5506 8.08762 48.0902 13.6367 43.8215 22.7792C42.2873 26.0923 40.605 29.7991 38.7809 33.9058C36.9537 38.0125 35.3817 41.6027 34.0617 44.6796C32.7417 47.7565 32.0865 49.3973 32.0959 49.602C32.1369 49.602 32.5212 49.0099 33.2489 47.8258C33.9735 46.6448 34.8745 45.1678 35.9425 43.3947C42.5834 32.2177 49.0542 23.1823 55.3549 16.2916C63.2118 7.47665 70.0985 2.22042 76.018 0.516637C77.0733 0.223749 78.0688 0.0536859 79.0139 0.0127447C79.7102 -0.0187486 80.3906 0.0127447 81.049 0.104075C82.6179 0.321379 83.7962 0.904004 84.5774 1.8551C84.7507 2.09445 84.8956 2.3023 85.0059 2.48182C85.1161 2.66133 85.176 2.87548 85.1886 3.12113C85.2012 3.36678 85.2138 3.71635 85.2359 4.16671C85.2989 6.5035 83.7583 9.63078 80.608 13.5485C74.8177 20.8298 66.0629 27.9158 54.3436 34.8033L51.3413 36.5386L52.6267 36.356L53.3639 36.3213C54.142 36.2867 55.106 36.2835 56.259 36.315C57.7397 36.3717 59.0786 36.4756 60.2757 36.6268C67.0269 37.9653 71.4216 41.6248 73.4599 47.6085L73.8915 49.0068L74.5625 48.8525C75.9045 48.547 77.4388 48.0148 79.1715 47.2589C80.901 46.5031 82.388 45.7504 83.626 44.9946C84.464 44.4245 85.3934 43.6844 86.4204 42.7743C87.4474 41.8673 88.2917 41.0485 88.9596 40.321C89.5833 39.5966 90.059 39.225 90.3867 39.2093C90.5505 39.203 90.6765 39.2785 90.7679 39.4392C90.7773 39.6439 90.4119 40.1729 89.6684 41.0264C88.884 41.883 87.9641 42.8499 86.9055 43.9206C86.4708 44.308 85.9573 44.7237 85.3587 45.1615C84.7633 45.5992 84.2026 45.974 83.6859 46.2826C82.6431 46.8653 81.2853 47.4794 79.6125 48.1281C77.9365 48.7801 76.5315 49.2524 75.3973 49.5485L74.0553 49.854L74.0238 51.8884C74.0112 58.0044 70.8325 64.9235 64.4877 72.6362C59.3086 78.9033 53.0362 84.1123 45.6676 88.2631C40.1387 91.3432 34.8304 93.3273 29.7363 94.2154C28.3092 94.4831 26.7781 94.6563 25.14 94.7287L24.2799 94.7665C22.2731 94.8578 20.5657 94.8106 19.1606 94.6279V94.6374ZM25.8582 92.9178C33.4033 91.7589 40.7373 88.2442 47.8634 82.3834C56.7694 75.0045 62.7613 67.2036 65.8392 58.9776C66.2393 57.8501 66.611 56.5116 66.9513 54.9559C67.2915 53.4001 67.449 52.3577 67.427 51.8254L67.3955 51.1483L62.9094 51.3499C60.8207 51.4444 58.3256 51.4759 55.4305 51.4412C52.5353 51.4066 49.9142 51.3405 47.5672 51.2397C45.1383 51.1042 42.5456 50.994 39.7922 50.9121C37.0356 50.8303 35.2084 50.7893 34.3043 50.7893L32.8299 50.8555L32.2597 51.8664C30.9271 54.2252 29.6985 56.499 28.5644 58.6815C27.4303 60.8672 26.6427 62.4828 26.1953 63.5283C25.8992 64.2401 25.6661 64.7755 25.4991 65.1282C25.329 65.4841 25.1778 65.7266 25.0391 65.8557C24.9005 65.9848 24.7525 66.095 24.5918 66.1832C24.3492 66.2777 24.1066 66.3281 23.8609 66.3407C23.7381 66.347 23.5931 66.3312 23.4262 66.2998C23.0135 66.2777 22.7016 66.1675 22.4874 65.9722L22.4811 65.8494C22.4716 65.6447 22.5693 65.1062 22.7772 64.2369C23.0544 63.1158 23.549 61.3081 24.2579 58.8138C24.8249 56.8581 25.3164 55.1858 25.7259 53.7906C26.1355 52.3986 26.356 51.6365 26.3938 51.5137C26.4284 51.3877 26.4347 51.3058 26.4127 51.2649C26.3906 51.2271 26.3371 51.2082 26.2552 51.2113L26.0725 51.2208C25.9086 51.2271 25.622 51.2617 25.2156 51.3216C23.8704 51.5042 22.4527 51.7656 20.9689 52.0963C19.4851 52.4301 18.2785 52.7608 17.3492 53.0915C7.73747 56.6439 2.78198 63.3331 2.48585 73.1558L2.5205 73.9558C2.75678 79.1994 4.42961 83.5171 7.539 86.9058C10.7807 90.537 15.1471 92.6187 20.6318 93.1509C21.5801 93.2296 22.4212 93.2548 23.1615 93.2202C23.8987 93.1855 24.7966 93.0848 25.8582 92.9147V92.9178ZM67.1088 50.2382C67.2695 50.1909 67.3797 50.0839 67.4333 49.917C67.4868 49.75 67.5089 49.5642 67.4994 49.3595L67.4837 48.9911C67.4238 48.5848 67.2947 47.9927 67.0962 47.2243C65.7636 42.2357 62.4841 39.2218 57.264 38.1857C56.1488 38.0314 54.8918 37.9842 53.4993 38.0471C52.885 38.0755 52.2486 38.1259 51.5965 38.1952C49.3881 38.3778 47.3499 38.7557 45.488 39.3321C45.0029 39.4769 44.5524 39.5588 44.1428 39.5777C43.8971 39.5903 43.6703 39.5777 43.4655 39.5462C42.6811 39.458 42.2841 39.2722 42.2684 38.9856C42.2526 38.6172 42.8638 38.0755 44.105 37.3637C48.1028 35.008 51.2689 33.0397 53.6001 31.4556C55.9314 29.8715 58.2658 28.1457 60.6033 26.275C72.3667 16.6727 78.7997 9.0765 79.9023 3.48645C79.9338 3.28174 79.9464 3.09593 79.9401 2.93217C79.8992 2.03146 79.3668 1.60315 78.3429 1.65039C76.9505 1.71338 74.9689 2.39678 72.3982 3.70375C61.5358 9.57095 49.5677 23.2453 36.4906 44.7269C35.6904 46.0779 35.0194 47.2054 34.487 48.1124C33.9515 49.0194 33.6868 49.4949 33.69 49.5327C33.7309 49.5705 34.1657 49.602 34.9879 49.6272C35.8102 49.6524 36.8183 49.6776 38.0091 49.706C39.2031 49.7752 40.5703 49.8382 42.114 49.8918C43.6577 49.9453 44.984 50.0083 46.096 50.0807C50.3364 50.3421 54.2649 50.4933 57.8814 50.5342C58.9085 50.572 60.0993 50.5689 61.4539 50.5279C62.8086 50.487 64.0372 50.4429 65.143 50.3925C66.2078 50.3453 66.8631 50.2949 67.1056 50.2413L67.1088 50.2382Z" fill="#E6E6E6"/>
<path d="M83.3328 56.2186C82.9926 55.0439 82.7972 53.9322 82.7531 52.8898C82.7059 51.8442 82.6744 51.1797 82.6618 50.8931C82.5956 49.4192 82.6397 48.1248 82.7941 47.0068C83.5565 42.9914 85.0119 39.3036 87.1605 35.9432C89.309 32.5829 91.8041 30.1201 94.6488 28.5549C96.3752 27.6983 98.1205 27.2291 99.8815 27.1503C101.684 27.0684 103.076 27.418 104.056 28.1928C104.916 29.0588 105.376 30.1453 105.436 31.4555C105.486 32.6018 105.218 33.9497 104.632 35.4929C104.103 36.5416 103.139 37.8612 101.731 39.4421C100.323 41.0231 98.9238 42.3395 97.5345 43.3883C95.1497 45.1393 92.9697 46.4053 90.9913 47.1926C90.588 47.3344 90.2447 47.4729 89.9643 47.6084C89.6839 47.7438 89.5012 47.8351 89.4224 47.8792C89.3846 47.9642 89.3216 48.1721 89.2366 48.5028C89.1483 48.8366 89.0727 49.2303 89.0129 49.6838C88.8207 50.8836 88.7577 52.241 88.827 53.7558C88.8963 55.2707 89.0538 56.5367 89.3059 57.5508C90.3045 60.5836 91.3536 62.2307 92.453 62.4889C93.5525 62.7472 94.3874 62.8637 94.9639 62.8385C96.2335 62.7818 97.5503 62.3535 98.9081 61.5536C100.868 60.3978 102.695 59.0026 104.387 57.365C109.197 52.9622 114.115 46.8273 119.14 38.9666C119.407 38.5446 119.663 38.2454 119.899 38.069C120.138 37.8958 120.318 37.8045 120.441 37.7982C120.482 37.7982 120.523 37.8171 120.567 37.8549V37.9147C120.573 37.9966 120.422 38.3115 120.119 38.8595C114.291 48.0713 109.238 54.8046 104.954 59.0624C102.83 61.1693 100.701 62.6621 98.5647 63.5376C97.0305 64.1423 95.5687 64.473 94.1763 64.536C92.4562 64.6147 90.818 64.2777 89.2649 63.525C86.4926 62.174 84.5173 59.7364 83.3297 56.2186H83.3328ZM91.9616 45.4227C92.7208 44.9787 93.5998 44.4055 94.5953 43.7032C95.5908 43.0009 96.5012 42.2828 97.3329 41.549C100.77 38.5225 102.493 35.3039 102.503 31.8964C102.436 30.4225 102.219 29.6729 101.847 29.6477C101.476 29.6226 101.249 29.6131 101.17 29.6163C100.515 29.6446 99.8059 29.9249 99.053 30.4508C98.1772 31.1059 97.4684 31.7546 96.9234 32.394C95.1214 34.3213 93.5462 36.7337 92.1979 39.6248C91.8608 40.3775 91.5111 41.2247 91.1425 42.1663C90.7739 43.108 90.4526 43.9614 90.1817 44.733C89.9076 45.5046 89.7753 45.9927 89.7847 46.1975C89.791 46.3203 89.832 46.3801 89.917 46.377H89.9769C90.1407 46.3675 90.3423 46.2951 90.5817 46.1628C90.9031 46.0242 91.3662 45.7786 91.9647 45.4227H91.9616Z" fill="#E6E6E6"/>
<path d="M125.626 70.8126C125.292 69.7607 125.091 68.4758 125.021 66.961L124.993 66.3469C124.911 64.5045 124.974 62.7157 125.182 60.9804C125.821 56.0265 127.252 50.849 129.47 45.4542C129.766 44.7425 129.911 44.3268 129.907 44.2039V44.141C129.863 44.141 129.804 44.1882 129.725 44.2732C129.451 44.5724 128.795 45.5361 127.762 47.1643C126.726 48.7925 125.598 50.616 124.375 52.6441C123.27 54.54 122.397 55.9163 121.758 56.7635C121.118 57.6138 120.579 58.1712 120.138 58.4357C119.42 58.8798 118.67 59.1192 117.892 59.1538L117.46 59.1727C116.474 59.1349 115.621 58.8452 114.896 58.3035C113.482 57.0123 112.726 55.2423 112.625 52.9874C112.593 52.2914 112.625 51.5513 112.71 50.7671C113.094 47.4257 114.146 44.1661 115.873 40.9885C117.596 37.8108 119.543 35.6189 121.704 34.4158C123.427 33.5183 125.387 33.0301 127.583 32.9514C129.775 32.8727 131.64 33.4773 133.178 34.7623C133.474 34.9953 133.732 35.2095 133.946 35.4047L134.268 35.6976C134.309 35.6976 134.406 35.559 134.557 35.2851C134.709 35.0111 134.901 34.6835 135.128 34.3056C136.309 32.3247 137.408 31.1657 138.42 30.8319C138.826 30.7311 139.232 30.6713 139.642 30.6524C140.093 30.6335 140.546 30.6744 141.003 30.7752C141.876 30.9831 142.487 31.3673 142.84 31.9247C142.969 32.0412 143.044 32.142 143.07 32.2208C143.095 32.3026 143.107 32.3845 143.111 32.4664L143.063 32.775L142.912 33.5214C142.805 33.8553 142.534 34.504 142.106 35.4677C141.677 36.4314 141.179 37.4801 140.615 38.6139C134.753 50.6601 131.461 60.0828 130.742 66.8885C130.604 68.3719 130.56 69.6662 130.61 70.7748C130.701 72.7841 131.111 74.1792 131.845 74.9666C132.147 75.2815 132.503 75.4295 132.913 75.4106C134.101 75.3571 135.78 73.8863 137.95 70.9953C139.418 68.9576 141.142 66.1925 143.12 62.6968C143.652 61.7709 144.746 59.79 146.393 56.7603C148.044 53.7307 149.852 50.364 151.821 46.6636C153.302 43.9709 154.468 41.864 155.324 40.3492C156.178 38.8343 156.799 37.7699 157.183 37.1558C157.564 36.5448 157.779 36.2361 157.819 36.233C157.939 36.1889 158.021 36.1637 158.062 36.1606C158.226 36.1543 158.311 36.233 158.32 36.3968L158.33 36.5794C158.264 36.951 157.949 37.6659 157.378 38.7147C156.736 39.9744 156.134 41.1711 155.57 42.3049C152.851 47.5989 150.775 51.6552 149.342 54.4676C143.495 65.9374 139.349 72.8345 136.911 75.1618C135.405 76.4215 133.959 77.0798 132.566 77.1427C131.747 77.1805 130.938 76.9916 130.137 76.5759C128.033 75.4799 126.53 73.5588 125.626 70.8063V70.8126ZM120.305 55.2896C121.09 54.4739 121.887 53.5039 122.699 52.3796C123.512 51.2553 124.687 49.5704 126.228 47.3249C127.034 46.0998 127.863 44.8716 128.71 43.6434C129.558 42.4151 130.232 41.4609 130.736 40.7806C131.124 40.2704 131.423 39.8579 131.634 39.5398C131.845 39.2217 131.977 38.9918 132.034 38.8438C132.088 38.6989 132.116 38.6044 132.113 38.5635L132.106 38.4407C132.103 38.3588 132.037 38.299 131.914 38.2643C131.533 37.9935 131.057 37.7163 130.49 37.436C129.923 37.1526 129.369 36.9227 128.827 36.74L127.762 36.3558L126.99 37.0077C125.21 38.5257 123.537 41.0231 121.969 44.5C120.4 47.9768 119.445 51.3466 119.099 54.603C119.007 55.3463 118.973 55.8816 118.985 56.2092C118.992 56.3729 119.017 56.4737 119.061 56.5147H119.124C119.288 56.5052 119.681 56.0958 120.302 55.2896H120.305Z" fill="#E6E6E6"/>
<path d="M169.359 76.2924C167.447 75.8043 165.979 74.639 164.952 72.7967C164.375 71.8393 163.96 70.8189 163.704 69.745C163.449 68.6679 163.288 67.3515 163.219 65.7957C163.024 61.4937 163.808 56.5147 165.563 50.8522C165.777 50.1436 165.966 49.52 166.127 48.9783C166.288 48.4398 166.385 48.106 166.42 47.98L165.903 48.8051C165.563 49.435 165.087 50.301 164.479 51.3938C162.696 54.6754 161.297 56.8548 160.277 57.9255C159.256 58.9995 157.99 59.5663 156.474 59.6356C154.304 59.7333 152.751 59.0026 151.818 57.4437C150.99 56.3729 150.517 54.5684 150.404 52.0269C150.382 51.5356 150.382 51.0443 150.397 50.5498C150.366 48.95 150.426 47.5611 150.58 46.3864C150.734 45.2086 151.021 43.8733 151.446 42.3773C151.802 41.1711 152.155 40.1193 152.505 39.2186C152.855 38.321 153.314 37.3447 153.882 36.2928C155.167 33.8553 156.358 32.4664 157.451 32.1294C157.854 31.9877 158.264 31.909 158.673 31.8901C158.919 31.8775 159.146 31.8901 159.354 31.9216C160.053 31.972 160.595 32.1105 160.973 32.3404C161.313 32.5703 161.505 32.7782 161.556 32.9608C161.603 33.1435 161.631 33.2569 161.631 33.2947C161.647 33.6631 161.531 34.2426 161.279 35.0331C160.948 35.9118 160.431 37.225 159.732 38.9824C158.283 42.371 157.265 45.0669 156.679 47.0635C156.09 49.0602 155.753 50.9026 155.665 52.5906C155.646 53.085 155.646 53.5574 155.665 54.0078C155.699 54.7857 155.794 55.4785 155.945 56.0895C156.153 57.1067 156.468 57.6673 156.884 57.7712C157.171 57.7586 157.687 57.4059 158.437 56.7162C159.187 56.0265 159.93 55.214 160.667 54.2755C161.401 53.2992 162.948 50.89 165.302 47.0478C167.655 43.2056 170.049 39.1776 172.487 34.9638C173.209 33.7009 173.767 32.8034 174.151 32.2711C174.538 31.7421 174.951 31.3232 175.389 31.0146C175.704 30.7532 175.975 30.5674 176.195 30.454C176.416 30.3406 176.649 30.2587 176.892 30.2083C177.134 30.1579 177.484 30.1202 177.934 30.1013C179.535 30.0698 180.6 30.4729 181.129 31.3106C181.217 31.4303 181.264 31.5909 181.274 31.7956C181.28 31.9594 181.267 32.1452 181.236 32.3499C181.173 32.8034 180.949 33.4931 180.559 34.4127C180.168 35.3323 179.56 36.633 178.731 38.3116C173.845 48.3422 170.802 56.4013 169.599 62.4889C169.262 64.1045 169.05 65.3769 168.969 66.3028C168.887 67.2287 168.865 68.0821 168.899 68.86C168.915 69.2285 168.953 69.619 169.013 70.0253C169.11 71.2944 169.268 72.2424 169.479 72.8691C169.693 73.4958 170.014 74.0249 170.443 74.4564L171.155 75.2248L171.876 74.8217C173.722 73.9178 176.403 70.5134 179.916 64.6084C180.565 63.5125 181.365 62.1204 182.317 60.4356C183.265 58.7507 184.585 56.3414 186.27 53.2079C187.956 50.0743 190.296 45.7314 193.289 40.176C193.856 39.0831 194.348 38.1793 194.77 37.4612C195.189 36.7463 195.523 36.1763 195.772 35.7543C196.021 35.3323 196.232 35.0174 196.405 34.8032C196.581 34.5922 196.707 34.4505 196.786 34.3843C196.865 34.3182 196.925 34.2867 196.966 34.2836C197.088 34.2773 197.202 34.293 197.306 34.3308C197.41 34.3686 197.463 34.4064 197.467 34.4473C197.467 34.4883 197.451 34.5702 197.416 34.6961C197.341 34.863 197.189 35.1591 196.962 35.5779L196.169 37.0928C194.017 41.253 191.207 46.7769 187.738 53.6645C187.247 54.6314 186.595 55.8816 185.782 57.4154C184.969 58.9522 184.182 60.3915 183.419 61.7394C180.348 67.3798 177.985 71.2094 176.331 73.2344C174.677 75.2594 173.01 76.3082 171.328 76.3837C171.123 76.4341 170.922 76.4625 170.717 76.4719C170.185 76.4971 169.731 76.4341 169.353 76.2861L169.359 76.2924Z" fill="#E6E6E6"/>
<path d="M190.986 81.9675C188.813 81.1203 187.316 79.3 186.491 76.5066C186.226 75.2059 186.059 73.7982 185.993 72.2802C185.681 65.358 187.404 56.2281 191.163 44.8936C193.998 36.7211 197.914 27.944 202.91 18.5653C203.477 17.5134 203.94 16.6316 204.3 15.9167C204.656 15.2018 204.835 14.827 204.835 14.7829C204.794 14.7829 204.52 14.8396 204.01 14.9436C203.499 15.0506 202.882 15.1798 202.148 15.3341C199.751 15.8946 197.756 16.2915 196.165 16.5277C194.575 16.7639 192.836 16.9245 190.952 17.0095L189.969 17.0536C188.453 17.1229 187.137 17.1008 186.024 16.9843C184.745 16.8363 183.438 16.5466 182.105 16.1151C180.149 15.5073 178.631 14.6507 177.556 13.5484C176.649 12.5627 176.066 11.706 175.808 10.9786C175.55 10.2511 175.414 9.74402 175.402 9.45743C175.383 9.04802 175.493 8.77717 175.735 8.64175C175.855 8.59451 175.959 8.56932 176.041 8.56617C176.287 8.55357 176.539 8.64805 176.791 8.84016C177.172 9.111 177.755 9.74087 178.539 10.7329C179.541 11.9611 180.351 12.8493 180.968 13.3941C181.589 13.9421 182.294 14.3609 183.088 14.6538C185.183 15.586 188.198 15.9639 192.133 15.7844C193.075 15.7435 194.026 15.6679 194.987 15.564C195.948 15.46 196.673 15.3561 197.161 15.249C198.015 15.0884 199.013 14.8806 200.151 14.6223C201.288 14.3672 202.315 14.1342 203.229 13.9295C204.142 13.7248 204.763 13.5736 205.087 13.476C205.128 13.476 205.169 13.4508 205.207 13.4098C205.33 13.4035 205.44 13.3689 205.541 13.3028C205.639 13.2366 205.777 13.0886 205.95 12.8524C206.124 12.6194 206.376 12.2477 206.7 11.7407C207.025 11.2336 207.456 10.5282 207.992 9.62119C208.524 8.71419 209.192 7.56468 209.992 6.17583L210.569 5.28772C211.063 4.40276 211.473 3.73825 211.804 3.2942C212.131 2.84699 212.437 2.54781 212.717 2.39034C212.998 2.23287 213.341 2.1258 213.751 2.06596L214.182 2.04706C215.124 2.00612 215.735 2.3683 216.019 3.13358C216.11 3.33514 216.164 3.58079 216.176 3.86423C216.192 4.19176 216.148 4.58542 216.044 5.03892C215.874 5.82625 215.493 6.93167 214.901 8.35516C214.604 9.06691 214.352 9.67158 214.151 10.1755C213.946 10.6762 213.848 10.9502 213.848 10.988L213.971 10.9817C214.135 10.9754 214.419 10.9219 214.825 10.8211C215.436 10.7109 216.167 10.5565 217.021 10.3518C217.956 10.1471 219.116 9.88889 220.496 9.58025C221.879 9.27162 223.18 8.98818 224.399 8.72678C226.15 8.4024 227.555 8.17565 228.617 8.04338C229.679 7.91426 230.989 7.81348 232.546 7.74419C235.412 7.61507 237.655 7.70955 239.272 8.02448C240.888 8.34257 242.167 8.95039 243.112 9.85424C244.183 10.8337 244.734 11.7123 244.769 12.4871C244.782 12.7737 244.731 13.0414 244.621 13.2933C244.397 13.7972 244.038 14.0586 243.547 14.0806C243.383 14.0869 243.216 14.0743 243.052 14.0428C242.762 14.0145 242.567 13.7374 242.46 13.2083C241.953 11.0982 240.721 9.71567 238.761 9.06376C237.347 8.6764 235.327 8.54097 232.706 8.66065C230.082 8.78032 227.329 9.1299 224.44 9.70937C223.013 9.98022 221.437 10.3172 219.711 10.7235C217.985 11.1297 216.473 11.5076 215.175 11.8509C213.877 12.1973 213.168 12.4146 213.048 12.4997C212.969 12.5847 212.591 13.2996 211.914 14.6444C211.237 15.9891 210.405 17.6268 209.425 19.5605C199.675 39.2091 193.815 55.3809 191.84 68.0727C191.582 69.6442 191.453 71.0866 191.449 72.3999C191.449 73.7131 191.459 74.6579 191.484 75.2311C191.528 76.2137 191.626 77.0105 191.777 77.6183C192.174 79.1205 192.728 80.0779 193.447 80.4968C193.617 80.6133 193.743 80.6668 193.825 80.6637C193.907 80.6605 193.989 80.6574 194.07 80.6511L194.316 80.6385C194.48 80.6322 194.723 80.5598 195.047 80.4212C197.668 79.3599 200.62 76.4971 203.9 71.833C204.823 70.4378 205.991 68.5671 207.403 66.2272C208.817 63.8841 210.229 61.5126 211.64 59.1097C212.55 57.4689 213.766 55.2675 215.285 52.5119C216.803 49.7562 218.338 46.925 219.891 44.0244C221.444 41.1207 222.767 38.6422 223.866 36.5794C224.963 34.5198 225.511 33.449 225.508 33.364C225.505 33.2821 225.552 33.2191 225.653 33.1719C225.753 33.1278 225.864 33.0994 225.987 33.0963C226.109 33.09 226.223 33.1152 226.33 33.1719C226.434 33.2285 226.491 33.2978 226.494 33.3797C226.494 33.4206 226.412 33.6411 226.245 34.0379C226.078 34.4347 225.731 35.1496 225.202 36.1795C224.673 37.2093 223.907 38.6706 222.906 40.5633C221.904 42.4561 220.606 44.9157 219.018 47.9422C215.275 55.0912 212.418 60.4923 210.449 64.1518C208.48 67.8113 206.968 70.4756 205.913 72.1448C204.857 73.8139 203.824 75.2657 202.813 76.5034C201.26 78.4623 199.521 79.9771 197.599 81.0479C197.117 81.3156 196.717 81.5172 196.395 81.6557C196.071 81.7943 195.75 81.8919 195.422 81.9455C195.097 82.0022 194.625 82.0651 194.014 82.1313C193.277 82.1659 192.691 82.1691 192.259 82.1502C191.827 82.1281 191.402 82.0651 190.986 81.9612V81.9675Z" fill="#E6E6E6"/>
<path d="M196.005 105.88C193.765 105.367 191.805 104.293 190.133 102.665C188.457 101.037 187.304 99.0872 186.667 96.8166C186.418 95.8434 186.27 94.8419 186.223 93.8184C186.122 91.6076 186.491 89.2897 187.326 86.871C188.526 83.4099 190.479 80.3267 193.192 77.6183C194.449 76.3711 195.734 75.2783 197.048 74.3367C198.361 73.395 199.94 72.4124 201.779 71.3826C203.981 70.1355 206.505 68.9419 209.35 67.8081C212.194 66.6744 216.365 65.1816 221.866 63.3329C224.172 62.5739 226.406 61.8055 228.567 61.0308C230.728 60.256 232.335 59.6829 233.387 59.3049C234.395 58.8892 235.271 58.5428 236.02 58.2625C236.767 57.9822 237.202 57.8185 237.322 57.7744C237.8 57.4657 239.202 53.0724 241.53 44.5913C242.022 42.7647 242.507 40.9853 242.983 39.2626C243.458 37.5399 243.802 36.2613 244.01 35.4299C244.262 34.6394 244.457 33.9749 244.596 33.4332C244.734 32.8947 244.804 32.6018 244.804 32.5609C244.763 32.5609 244.608 32.775 244.34 33.197C244.073 33.66 243.748 34.23 243.37 34.904C242.989 35.5779 242.649 36.2078 242.346 36.7967C242.119 37.2187 241.852 37.6817 241.546 38.1887C241.241 38.6958 240.951 39.1398 240.683 39.5209C240.065 40.3712 239.448 41.3128 238.84 42.3427C238.229 43.3756 237.432 44.7991 236.446 46.6069C234.71 49.9703 233.311 52.2095 232.253 53.3212C231.194 54.4361 229.988 55.025 228.636 55.0848L228.082 55.11C224.478 55.2738 222.546 52.5496 222.291 46.9344C222.061 41.8545 223.249 36.7526 225.851 31.6287C227.099 29.273 228.271 27.9282 229.364 27.5912C229.767 27.4495 230.173 27.3708 230.586 27.3519C230.832 27.3393 231.059 27.3519 231.263 27.3834C231.919 27.396 232.461 27.5345 232.883 27.8022C233.094 27.9566 233.236 28.114 233.305 28.2746C233.374 28.4352 233.418 28.7218 233.437 29.1312C233.453 29.4997 233.352 30.0068 233.135 30.6524C232.917 31.298 232.492 32.3562 231.862 33.8206C230.189 37.7132 229.036 40.8027 228.4 43.0891C227.763 45.3755 227.486 47.4194 227.568 49.2208L227.581 49.5294C227.669 51.4568 228.009 52.6504 228.605 53.1165C228.645 53.1575 228.708 53.1732 228.79 53.1701C229.241 53.1512 229.937 52.6252 230.876 51.5985C232.013 50.4396 233.198 48.95 234.433 47.1296C234.697 46.6667 235.082 46.0337 235.579 45.2306C236.077 44.4275 236.556 43.6465 237.013 42.8875C237.167 42.6765 237.322 42.4214 237.473 42.1285C237.97 41.3254 238.525 40.3995 239.133 39.3445C239.741 38.2926 240.314 37.3226 240.85 36.4345C241.499 35.3386 242.223 34.1166 243.027 32.7656C243.827 31.4177 244.495 30.2587 245.024 29.2887C245.711 28.1077 246.256 27.2417 246.662 26.6905C247.069 26.1394 247.412 25.8056 247.696 25.689C247.976 25.5757 248.222 25.5127 248.426 25.5032C248.631 25.4938 248.858 25.5253 249.107 25.5946C250.178 25.6701 250.802 26.0512 250.975 26.7409C251.148 27.4306 251.249 28.0006 251.268 28.451C251.318 29.5564 251.224 31.0996 250.985 33.0805C250.354 38.2422 248.956 44.1126 246.788 50.6947C246.577 51.4442 246.379 52.0678 246.196 52.5685L245.925 53.3811H245.988C246.07 53.3748 246.291 53.2834 246.653 53.1008C247.091 52.8362 247.651 52.4929 248.332 52.0709C249.012 51.6521 249.69 51.2206 250.367 50.7797C251.602 49.9451 252.982 48.9185 254.51 47.6997C256.035 46.4809 257.329 45.3755 258.394 44.3834C262.017 40.979 265.268 37.0329 268.148 32.5546C268.919 31.4932 269.471 30.9547 269.798 30.9421H269.861C269.946 30.9768 269.991 31.0555 269.997 31.1783C270.013 31.5468 269.679 32.3436 268.995 33.5624C264.144 41.6215 256.898 48.5154 247.261 54.244L245.219 55.4439L243.887 58.7066C240.755 66.646 237.114 73.8107 232.968 80.1944C224.292 93.557 215.036 101.855 205.204 105.09C203.95 105.474 202.769 105.713 201.663 105.805C200.557 105.896 199.864 105.946 199.577 105.962C198.103 106.028 196.909 106 196.002 105.877L196.005 105.88ZM203.855 103.802C211.59 100.498 218.924 93.3114 225.857 82.2446C228.838 77.2687 231.632 71.8865 234.247 66.1043C234.77 64.9328 235.242 63.8242 235.668 62.7755C236.093 61.7299 236.424 60.8859 236.663 60.2371C236.899 59.5915 237.016 59.2262 237.013 59.1443C236.972 59.1443 236.597 59.2766 235.891 59.5348C235.182 59.7931 234.303 60.108 233.254 60.4859C232.205 60.9016 230.722 61.4528 228.803 62.133C226.884 62.8164 224.972 63.4652 223.069 64.0856C217.73 65.887 213.71 67.3294 211.007 68.4159C208.304 69.5025 205.894 70.6488 203.77 71.8519C195.841 76.3144 190.977 81.8289 189.178 88.3953C188.652 90.3888 188.428 92.2469 188.507 93.9664C188.583 95.645 188.939 97.1882 189.578 98.5991C190.86 101.496 193.062 103.471 196.191 104.52C196.733 104.699 197.18 104.794 197.526 104.797C197.876 104.8 198.213 104.797 198.541 104.781L199.769 104.725C200.629 104.646 201.341 104.539 201.912 104.413C202.482 104.284 203.128 104.082 203.855 103.802Z" fill="#E6E6E6"/>
</svg>
