<?xml version="1.0" encoding="UTF-8"?>
<svg id="Capa_2" data-name="Capa 2" xmlns="http://www.w3.org/2000/svg" viewBox="0 0 857.05 336.58">
  <defs>
    <style>
      .cls-1 {
        fill: #e6e6e6;
      }
    </style>
  </defs>
  <g id="Beauty">
    <g>
      <path class="cls-1" d="M60.82,300.5c-19.15-2.53-34.29-10.44-45.45-23.76C5.79,263.88,.69,250.49,.07,236.57c-.54-11.97,2.23-24.34,8.3-37.13,11.68-21.38,33.77-34.43,66.27-39.16,3.5-.42,6.03-.79,7.57-1.12,1.55-.33,2.57-.83,3.06-1.51,.49-.67,.9-1.67,1.23-2.99,7.38-24.19,15.65-47.5,24.81-69.94,2.94-7.04,7.12-16.32,12.53-27.84,5.41-11.52,10.54-22.08,15.39-31.68,4.85-9.6,7.89-15.15,9.12-16.64,1.88-1.65,4.12-2.53,6.72-2.65,1.82-.08,3.79,.22,5.91,.91,1.97,.43,3.02,1.95,3.14,4.55,.09,1.95-.44,4.65-1.59,8.09-2.07,6.22-9.88,23.84-23.43,52.87-4.87,10.52-10.21,22.29-16,35.33-5.8,13.04-10.79,24.44-14.98,34.21-4.19,9.77-6.27,14.98-6.24,15.63,.13,0,1.35-1.88,3.66-5.64,2.3-3.75,5.16-8.44,8.55-14.07,21.08-35.49,41.62-64.18,61.62-86.06C200.65,23.74,222.51,7.05,241.3,1.64c3.35-.93,6.51-1.47,9.51-1.6,2.21-.1,4.37,0,6.46,.29,4.98,.69,8.72,2.54,11.2,5.56,.55,.76,1.01,1.42,1.36,1.99,.35,.57,.54,1.25,.58,2.03s.08,1.89,.15,3.32c.2,7.42-4.69,17.35-14.69,29.79-18.38,23.12-46.17,45.62-83.37,67.49l-9.53,5.51,4.08-.58,2.34-.11c2.47-.11,5.53-.12,9.19-.02,4.7,.18,8.95,.51,12.75,.99,21.43,4.25,35.38,15.87,41.85,34.87l1.37,4.44,2.13-.49c4.26-.97,9.13-2.66,14.63-5.06,5.49-2.4,10.21-4.79,14.14-7.19,2.66-1.81,5.61-4.16,8.87-7.05,3.26-2.88,5.94-5.48,8.06-7.79,1.98-2.3,3.49-3.48,4.53-3.53,.52-.02,.92,.22,1.21,.73,.03,.65-1.13,2.33-3.49,5.04-2.49,2.72-5.41,5.79-8.77,9.19-1.38,1.23-3.01,2.55-4.91,3.94-1.89,1.39-3.67,2.58-5.31,3.56-3.31,1.85-7.62,3.8-12.93,5.86-5.32,2.07-9.78,3.57-13.38,4.51l-4.26,.97-.1,6.46c-.04,19.42-10.13,41.39-30.27,65.88-16.44,19.9-36.35,36.44-59.74,49.62-17.55,9.78-34.4,16.08-50.57,18.9-4.53,.85-9.39,1.4-14.59,1.63l-2.73,.12c-6.37,.29-11.79,.14-16.25-.44Zm21.26-5.46c23.95-3.68,47.23-14.84,69.85-33.45,28.27-23.43,47.29-48.2,57.06-74.32,1.27-3.58,2.45-7.83,3.53-12.77,1.08-4.94,1.58-8.25,1.51-9.94l-.1-2.15-14.24,.64c-6.63,.3-14.55,.4-23.74,.29-9.19-.11-17.51-.32-24.96-.64-7.71-.43-15.94-.78-24.68-1.04-8.75-.26-14.55-.39-17.42-.39l-4.68,.21-1.81,3.21c-4.23,7.49-8.13,14.71-11.73,21.64-3.6,6.94-6.1,12.07-7.52,15.39-.94,2.26-1.68,3.96-2.21,5.08-.54,1.13-1.02,1.9-1.46,2.31-.44,.41-.91,.76-1.42,1.04-.77,.3-1.54,.46-2.32,.5-.39,.02-.85-.03-1.38-.13-1.31-.07-2.3-.42-2.98-1.04l-.02-.39c-.03-.65,.28-2.36,.94-5.12,.88-3.56,2.45-9.3,4.7-17.22,1.8-6.21,3.36-11.52,4.66-15.95,1.3-4.42,2-6.84,2.12-7.23,.11-.4,.13-.66,.06-.79-.07-.12-.24-.18-.5-.17l-.58,.03c-.52,.02-1.43,.13-2.72,.32-4.27,.58-8.77,1.41-13.48,2.46-4.71,1.06-8.54,2.11-11.49,3.16-30.51,11.28-46.24,32.52-47.18,63.71l.11,2.54c.75,16.65,6.06,30.36,15.93,41.12,10.29,11.53,24.15,18.14,41.56,19.83,3.01,.25,5.68,.33,8.03,.22,2.34-.11,5.19-.43,8.56-.97ZM213.02,159.52c.51-.15,.86-.49,1.03-1.02,.17-.53,.24-1.12,.21-1.77l-.05-1.17c-.19-1.29-.6-3.17-1.23-5.61-4.23-15.84-14.64-25.41-31.21-28.7-3.54-.49-7.53-.64-11.95-.44-1.95,.09-3.97,.25-6.04,.47-7.01,.58-13.48,1.78-19.39,3.61-1.54,.46-2.97,.72-4.27,.78-.78,.04-1.5,0-2.15-.1-2.49-.28-3.75-.87-3.8-1.78-.05-1.17,1.89-2.89,5.83-5.15,12.69-7.48,22.74-13.73,30.14-18.76,7.4-5.03,14.81-10.51,22.23-16.45,37.34-30.49,57.76-54.61,61.26-72.36,.1-.65,.14-1.24,.12-1.76-.13-2.86-1.82-4.22-5.07-4.07-4.42,.2-10.71,2.37-18.87,6.52-34.48,18.63-72.47,62.05-113.98,130.26-2.54,4.29-4.67,7.87-6.36,10.75-1.7,2.88-2.54,4.39-2.53,4.51,.13,.12,1.51,.22,4.12,.3,2.61,.08,5.81,.16,9.59,.25,3.79,.22,8.13,.42,13.03,.59,4.9,.17,9.11,.37,12.64,.6,13.46,.83,25.93,1.31,37.41,1.44,3.26,.12,7.04,.11,11.34-.02,4.3-.13,8.2-.27,11.71-.43,3.38-.15,5.46-.31,6.23-.48Z"/>
      <path class="cls-1" d="M264.52,178.51c-1.08-3.73-1.7-7.26-1.84-10.57-.15-3.32-.25-5.43-.29-6.34-.21-4.68-.07-8.79,.42-12.34,2.42-12.75,7.04-24.46,13.86-35.13,6.82-10.67,14.74-18.49,23.77-23.46,5.48-2.72,11.02-4.21,16.61-4.46,5.72-.26,10.14,.85,13.25,3.31,2.73,2.75,4.19,6.2,4.38,10.36,.16,3.64-.69,7.92-2.55,12.82-1.68,3.33-4.74,7.52-9.21,12.54-4.47,5.02-8.91,9.2-13.32,12.53-7.57,5.56-14.49,9.58-20.77,12.08-1.28,.45-2.37,.89-3.26,1.32-.89,.43-1.47,.72-1.72,.86-.12,.27-.32,.93-.59,1.98-.28,1.06-.52,2.31-.71,3.75-.61,3.81-.81,8.12-.59,12.93,.22,4.81,.72,8.83,1.52,12.05,3.17,9.63,6.5,14.86,9.99,15.68,3.49,.82,6.14,1.19,7.97,1.11,4.03-.18,8.21-1.54,12.52-4.08,6.22-3.67,12.02-8.1,17.39-13.3,15.27-13.98,30.88-33.46,46.83-58.42,.85-1.34,1.66-2.29,2.41-2.85,.76-.55,1.33-.84,1.72-.86,.13,0,.26,.06,.4,.18v.19c.02,.26-.46,1.26-1.42,3-18.5,29.25-34.54,50.63-48.14,64.15-6.74,6.69-13.5,11.43-20.28,14.21-4.87,1.92-9.51,2.97-13.93,3.17-5.46,.25-10.66-.82-15.59-3.21-8.8-4.29-15.07-12.03-18.84-23.2Zm27.39-34.28c2.41-1.41,5.2-3.23,8.36-5.46,3.16-2.23,6.05-4.51,8.69-6.84,10.91-9.61,16.38-19.83,16.41-30.65-.21-4.68-.9-7.06-2.08-7.14-1.18-.08-1.9-.11-2.15-.1-2.08,.09-4.33,.98-6.72,2.65-2.78,2.08-5.03,4.14-6.76,6.17-5.72,6.12-10.72,13.78-15,22.96-1.07,2.39-2.18,5.08-3.35,8.07-1.17,2.99-2.19,5.7-3.05,8.15-.87,2.45-1.29,4-1.26,4.65,.02,.39,.15,.58,.42,.57h.19c.52-.03,1.16-.26,1.92-.68,1.02-.44,2.49-1.22,4.39-2.35Z"/>
      <path class="cls-1" d="M398.77,224.85c-1.06-3.34-1.7-7.42-1.92-12.23l-.09-1.95c-.26-5.85-.06-11.53,.6-17.04,2.03-15.73,6.57-32.17,13.61-49.3,.94-2.26,1.4-3.58,1.39-3.97v-.2c-.14,0-.33,.15-.58,.42-.87,.95-2.95,4.01-6.23,9.18-3.29,5.17-6.87,10.96-10.75,17.4-3.51,6.02-6.28,10.39-8.31,13.08-2.03,2.7-3.74,4.47-5.14,5.31-2.28,1.41-4.66,2.17-7.13,2.28l-1.37,.06c-3.13-.12-5.84-1.04-8.14-2.76-4.49-4.1-6.89-9.72-7.21-16.88-.1-2.21,0-4.56,.27-7.05,1.22-10.61,4.56-20.96,10.04-31.05,5.47-10.09,11.65-17.05,18.51-20.87,5.47-2.85,11.69-4.4,18.66-4.65,6.96-.25,12.88,1.67,17.76,5.75,.94,.74,1.76,1.42,2.44,2.04l1.02,.93c.13,0,.44-.44,.92-1.31,.48-.87,1.09-1.91,1.81-3.11,3.75-6.29,7.24-9.97,10.45-11.03,1.29-.32,2.58-.51,3.88-.57,1.43-.06,2.87,.07,4.32,.39,2.77,.66,4.71,1.88,5.83,3.65,.41,.37,.65,.69,.73,.94,.08,.26,.12,.52,.13,.78l-.15,.98-.48,2.37c-.34,1.06-1.2,3.12-2.56,6.18-1.36,3.06-2.94,6.39-4.73,9.99-18.61,38.25-29.06,68.17-31.34,89.78-.44,4.71-.58,8.82-.42,12.34,.29,6.38,1.59,10.81,3.92,13.31,.96,1,2.09,1.47,3.39,1.41,3.77-.17,9.1-4.84,15.99-14.02,4.66-6.47,10.13-15.25,16.41-26.35,1.69-2.94,5.16-9.23,10.39-18.85,5.24-9.62,10.98-20.31,17.23-32.06,4.7-8.55,8.4-15.24,11.12-20.05,2.71-4.81,4.68-8.19,5.9-10.14,1.21-1.94,1.89-2.92,2.02-2.93,.38-.14,.64-.22,.77-.23,.52-.02,.79,.23,.82,.75l.03,.58c-.21,1.18-1.21,3.45-3.02,6.78-2.04,4-3.95,7.8-5.74,11.4-8.63,16.81-15.22,29.69-19.77,38.62-18.56,36.42-31.72,58.32-39.46,65.71-4.78,4-9.37,6.09-13.79,6.29-2.6,.12-5.17-.48-7.71-1.8-6.68-3.48-11.45-9.58-14.32-18.32Zm-16.89-49.29c2.49-2.59,5.02-5.67,7.6-9.24,2.58-3.57,6.31-8.92,11.2-16.05,2.56-3.89,5.19-7.79,7.88-11.69,2.69-3.9,4.83-6.93,6.43-9.09,1.23-1.62,2.18-2.93,2.85-3.94,.67-1.01,1.09-1.74,1.27-2.21,.17-.46,.26-.76,.25-.89l-.02-.39c-.01-.26-.22-.45-.61-.56-1.21-.86-2.72-1.74-4.52-2.63-1.8-.9-3.56-1.63-5.28-2.21l-3.38-1.22-2.45,2.07c-5.65,4.82-10.96,12.75-15.94,23.79-4.98,11.04-8.01,21.74-9.11,32.08-.29,2.36-.4,4.06-.36,5.1,.02,.52,.1,.84,.24,.97h.2c.52-.03,1.77-1.33,3.74-3.89Z"/>
      <path class="cls-1" d="M537.59,242.25c-6.07-1.55-10.73-5.25-13.99-11.1-1.83-3.04-3.15-6.28-3.96-9.69-.81-3.42-1.32-7.6-1.54-12.54-.62-13.66,1.87-29.47,7.44-47.45,.68-2.25,1.28-4.23,1.79-5.95,.51-1.71,.82-2.77,.93-3.17l-1.64,2.62c-1.08,2-2.59,4.75-4.52,8.22-5.66,10.42-10.1,17.34-13.34,20.74-3.24,3.41-7.26,5.21-12.07,5.43-6.89,.31-11.82-2.01-14.78-6.96-2.63-3.4-4.13-9.13-4.49-17.2-.07-1.56-.07-3.12-.02-4.69-.1-5.08,.09-9.49,.58-13.22,.49-3.74,1.4-7.98,2.75-12.73,1.13-3.83,2.25-7.17,3.36-10.03,1.11-2.85,2.57-5.95,4.37-9.29,4.08-7.74,7.86-12.15,11.33-13.22,1.28-.45,2.58-.7,3.88-.76,.78-.04,1.5,0,2.16,.1,2.22,.16,3.94,.6,5.14,1.33,1.08,.73,1.69,1.39,1.85,1.97,.15,.58,.24,.94,.24,1.06,.05,1.17-.32,3.01-1.12,5.52-1.05,2.79-2.69,6.96-4.91,12.54-4.6,10.76-7.83,19.32-9.69,25.66-1.87,6.34-2.94,12.19-3.22,17.55-.06,1.57-.06,3.07,0,4.5,.11,2.47,.41,4.67,.89,6.61,.66,3.23,1.66,5.01,2.98,5.34,.91-.04,2.55-1.16,4.93-3.35,2.38-2.19,4.74-4.77,7.08-7.75,2.33-3.1,7.24-10.75,14.71-22.95,7.47-12.2,15.07-24.99,22.81-38.37,2.29-4.01,4.06-6.86,5.28-8.55,1.23-1.68,2.54-3.01,3.93-3.99,1-.83,1.86-1.42,2.56-1.78,.7-.36,1.44-.62,2.21-.78,.77-.16,1.88-.28,3.31-.34,5.08-.1,8.46,1.18,10.14,3.84,.28,.38,.43,.89,.46,1.54,.02,.52-.02,1.11-.12,1.76-.2,1.44-.91,3.63-2.15,6.55-1.24,2.92-3.17,7.05-5.8,12.38-15.51,31.85-25.17,57.44-28.99,76.77-1.07,5.13-1.74,9.17-2,12.11-.26,2.94-.33,5.65-.22,8.12,.05,1.17,.17,2.41,.36,3.7,.31,4.03,.81,7.04,1.48,9.03,.68,1.99,1.7,3.67,3.06,5.04l2.26,2.44,2.29-1.28c5.86-2.87,14.37-13.68,25.52-32.43,2.06-3.48,4.6-7.9,7.62-13.25,3.01-5.35,7.2-13,12.55-22.95,5.35-9.95,12.78-23.74,22.28-41.38,1.8-3.47,3.36-6.34,4.7-8.62,1.33-2.27,2.39-4.08,3.18-5.42,.79-1.34,1.46-2.34,2.01-3.02,.56-.67,.96-1.12,1.21-1.33,.25-.21,.44-.31,.57-.32,.39-.02,.75,.03,1.08,.15,.33,.12,.5,.24,.51,.37,0,.13-.05,.39-.16,.79-.24,.53-.72,1.47-1.44,2.8l-2.52,4.81c-6.83,13.21-15.75,30.75-26.76,52.62-1.56,3.07-3.63,7.04-6.21,11.91-2.58,4.88-5.08,9.45-7.5,13.73-9.75,17.91-17.25,30.07-22.5,36.5-5.25,6.43-10.54,9.76-15.88,10-.65,.16-1.29,.25-1.94,.28-1.69,.08-3.13-.12-4.33-.59Z"/>
      <path class="cls-1" d="M606.24,260.27c-6.9-2.69-11.65-8.47-14.27-17.34-.84-4.13-1.37-8.6-1.58-13.42-.99-21.98,4.48-50.97,16.41-86.96,9-25.95,21.43-53.82,37.29-83.6,1.8-3.34,3.27-6.14,4.41-8.41,1.13-2.27,1.7-3.46,1.7-3.6-.13,0-1,.18-2.62,.51-1.62,.34-3.58,.75-5.91,1.24-7.61,1.78-13.94,3.04-18.99,3.79-5.05,.75-10.57,1.26-16.55,1.53l-3.12,.14c-4.81,.22-8.99,.15-12.52-.22-4.06-.47-8.21-1.39-12.44-2.76-6.21-1.93-11.03-4.65-14.44-8.15-2.88-3.13-4.73-5.85-5.55-8.16-.82-2.31-1.25-3.92-1.29-4.83-.06-1.3,.29-2.16,1.06-2.59,.38-.15,.71-.23,.97-.24,.78-.04,1.58,.26,2.38,.87,1.21,.86,3.06,2.86,5.55,6.01,3.18,3.9,5.75,6.72,7.71,8.45,1.97,1.74,4.21,3.07,6.73,4,6.65,2.96,16.22,4.16,28.71,3.59,2.99-.13,6.01-.37,9.06-.7,3.05-.33,5.35-.66,6.9-1,2.71-.51,5.88-1.17,9.49-1.99,3.61-.81,6.87-1.55,9.77-2.2,2.9-.65,4.87-1.13,5.9-1.44,.13,0,.26-.08,.38-.21,.39-.02,.74-.13,1.06-.34,.31-.21,.75-.68,1.3-1.43,.55-.74,1.35-1.92,2.38-3.53,1.03-1.61,2.4-3.85,4.1-6.73,1.69-2.88,3.81-6.53,6.35-10.94l1.83-2.82c1.57-2.81,2.87-4.92,3.92-6.33,1.04-1.42,2.01-2.37,2.9-2.87,.89-.5,1.98-.84,3.28-1.03l1.37-.06c2.99-.13,4.93,1.02,5.83,3.45,.29,.64,.46,1.42,.5,2.32,.05,1.04-.09,2.29-.42,3.73-.54,2.5-1.75,6.01-3.63,10.53-.94,2.26-1.74,4.18-2.38,5.78-.65,1.59-.96,2.46-.96,2.58l.39-.02c.52-.02,1.42-.19,2.71-.51,1.94-.35,4.26-.84,6.97-1.49,2.97-.65,6.65-1.47,11.03-2.45,4.39-.98,8.52-1.88,12.39-2.71,5.56-1.03,10.02-1.75,13.39-2.17,3.37-.41,7.53-.73,12.47-.95,9.1-.41,16.22-.11,21.35,.89,5.13,1.01,9.19,2.94,12.19,5.81,3.4,3.11,5.15,5.9,5.26,8.36,.04,.91-.12,1.76-.47,2.56-.71,1.6-1.85,2.43-3.41,2.5-.52,.02-1.05-.02-1.57-.12-.92-.09-1.54-.97-1.88-2.65-1.61-6.7-5.52-11.09-11.74-13.16-4.49-1.23-10.9-1.66-19.22-1.28-8.33,.38-17.07,1.49-26.24,3.33-4.53,.86-9.53,1.93-15.01,3.22-5.48,1.29-10.28,2.49-14.4,3.58-4.12,1.1-6.37,1.79-6.75,2.06-.25,.27-1.45,2.54-3.6,6.81-2.15,4.27-4.79,9.47-7.9,15.61-30.95,62.39-49.55,113.74-55.82,154.04-.82,4.99-1.23,9.57-1.24,13.74,0,4.17,.03,7.17,.11,8.99,.14,3.12,.45,5.65,.93,7.58,1.26,4.77,3.02,7.81,5.3,9.14,.54,.37,.94,.54,1.2,.53,.26-.01,.52-.02,.78-.04l.78-.04c.52-.02,1.29-.25,2.32-.69,8.32-3.37,17.69-12.46,28.1-27.27,2.93-4.43,6.64-10.37,11.12-17.8,4.49-7.44,8.97-14.97,13.45-22.6,2.89-5.21,6.75-12.2,11.57-20.95,4.82-8.75,9.69-17.74,14.62-26.95,4.93-9.22,9.13-17.09,12.62-23.64,3.48-6.54,5.22-9.94,5.21-10.21-.01-.26,.14-.46,.46-.61,.32-.14,.67-.23,1.06-.24,.39-.02,.75,.06,1.09,.24,.33,.18,.51,.4,.52,.66,0,.13-.26,.83-.79,2.09-.53,1.26-1.63,3.53-3.31,6.8-1.68,3.27-4.11,7.91-7.29,13.92-3.18,6.01-7.3,13.82-12.34,23.43-11.88,22.7-20.95,39.85-27.2,51.47-6.25,11.62-11.05,20.08-14.4,25.38-3.35,5.3-6.63,9.91-9.84,13.84-4.93,6.22-10.45,11.03-16.55,14.43-1.53,.85-2.8,1.49-3.82,1.93-1.03,.44-2.05,.75-3.09,.92-1.03,.18-2.53,.38-4.47,.59-2.34,.11-4.2,.12-5.57,.06-1.37-.07-2.72-.27-4.04-.6Z"/>
      <path class="cls-1" d="M622.17,336.2c-7.11-1.63-13.33-5.04-18.64-10.21-5.32-5.17-8.98-11.36-11-18.57-.79-3.09-1.26-6.27-1.41-9.52-.32-7.02,.85-14.38,3.5-22.06,3.81-10.99,10.01-20.78,18.62-29.38,3.99-3.96,8.07-7.43,12.24-10.42,4.17-2.99,9.18-6.11,15.02-9.38,6.99-3.96,15-7.75,24.03-11.35,9.03-3.6,22.27-8.34,39.73-14.21,7.32-2.41,14.41-4.85,21.27-7.31,6.86-2.46,11.96-4.28,15.3-5.48,3.2-1.32,5.98-2.42,8.36-3.31,2.37-.89,3.75-1.41,4.13-1.55,1.52-.98,5.97-14.93,13.36-41.86,1.56-5.8,3.1-11.45,4.61-16.92,1.51-5.47,2.6-9.53,3.26-12.17,.8-2.51,1.42-4.62,1.86-6.34,.44-1.71,.66-2.64,.66-2.77-.13,0-.62,.68-1.47,2.02-.85,1.47-1.88,3.28-3.08,5.42-1.21,2.14-2.29,4.14-3.25,6.01-.72,1.34-1.57,2.81-2.54,4.42-.97,1.61-1.89,3.02-2.74,4.23-1.96,2.7-3.92,5.69-5.85,8.96-1.94,3.28-4.47,7.8-7.6,13.54-5.51,10.68-9.95,17.79-13.31,21.32-3.36,3.54-7.19,5.41-11.48,5.6l-1.76,.08c-11.44,.52-17.57-8.13-18.38-25.96-.73-16.13,3.04-32.33,11.3-48.6,3.96-7.48,7.68-11.75,11.15-12.82,1.28-.45,2.57-.7,3.88-.76,.78-.04,1.5,0,2.15,.1,2.08,.04,3.8,.48,5.14,1.33,.67,.49,1.12,.99,1.34,1.5,.22,.51,.36,1.42,.42,2.72,.05,1.17-.27,2.78-.96,4.83-.69,2.05-2.04,5.41-4.04,10.06-5.31,12.36-8.97,22.17-10.99,29.43-2.02,7.26-2.9,13.75-2.64,19.47l.04,.98c.28,6.12,1.36,9.91,3.25,11.39,.13,.13,.33,.18,.59,.17,1.43-.06,3.64-1.73,6.62-4.99,3.61-3.68,7.37-8.41,11.29-14.19,.84-1.47,2.06-3.48,3.64-6.03,1.58-2.55,3.1-5.03,4.55-7.44,.49-.67,.98-1.48,1.46-2.41,1.58-2.55,3.34-5.49,5.27-8.84,1.93-3.34,3.75-6.42,5.45-9.24,2.06-3.48,4.36-7.36,6.91-11.65,2.54-4.28,4.66-7.96,6.34-11.04,2.18-3.75,3.91-6.5,5.2-8.25,1.29-1.75,2.38-2.81,3.28-3.18,.89-.36,1.67-.56,2.32-.59,.65-.03,1.37,.07,2.16,.29,3.4,.24,5.38,1.45,5.93,3.64,.55,2.19,.87,4,.93,5.43,.16,3.51-.14,8.41-.9,14.7-2,16.39-6.44,35.03-13.32,55.93-.67,2.38-1.3,4.36-1.88,5.95l-.86,2.58h.2c.26-.02,.96-.31,2.11-.89,1.39-.84,3.17-1.93,5.33-3.27,2.16-1.33,4.31-2.7,6.46-4.1,3.92-2.65,8.3-5.91,13.15-9.78,4.84-3.87,8.95-7.38,12.33-10.53,11.5-10.81,21.82-23.34,30.96-37.56,2.45-3.37,4.2-5.08,5.24-5.12h.2c.27,.11,.41,.36,.43,.75,.05,1.17-1.01,3.7-3.18,7.57-15.4,25.59-38.4,47.48-68.99,65.67l-6.48,3.81-4.23,10.36c-9.94,25.21-21.5,47.96-34.66,68.23-27.54,42.43-56.92,68.78-88.13,79.05-3.98,1.22-7.73,1.98-11.24,2.27-3.51,.29-5.71,.45-6.62,.5-4.68,.21-8.47,.12-11.35-.27Zm24.92-6.6c24.55-10.49,47.83-33.31,69.84-68.45,9.46-15.8,18.33-32.89,26.63-51.25,1.66-3.72,3.16-7.24,4.51-10.57,1.35-3.32,2.4-6,3.16-8.06,.75-2.05,1.12-3.21,1.11-3.47-.13,0-1.32,.42-3.56,1.24-2.25,.82-5.04,1.82-8.37,3.02-3.33,1.32-8.04,3.07-14.13,5.23-6.09,2.17-12.16,4.23-18.2,6.2-16.95,5.72-29.71,10.3-38.29,13.75-8.58,3.45-16.23,7.09-22.97,10.91-25.17,14.17-40.61,31.68-46.32,52.53-1.67,6.33-2.38,12.23-2.13,17.69,.24,5.33,1.37,10.23,3.4,14.71,4.07,9.2,11.06,15.47,20.99,18.8,1.72,.57,3.14,.87,4.24,.88,1.11,.01,2.18,0,3.22-.05l3.9-.18c2.73-.25,4.99-.59,6.8-.99,1.81-.41,3.86-1.05,6.17-1.94Z"/>
    </g>
  </g>
</svg>